<?xml version="1.0" encoding="UTF-8" standalone="no"?>
<svg
   version="1.1"
   width="1343.3329pt"
   height="1219.3909pt"
   id="svg30"
   viewBox="0 0 1343.3329 1219.3909"
   sodipodi:docname="PilateSpot_logo.svg"
   inkscape:export-filename="PilateSpot_logo.cdr.svg"
   inkscape:export-xdpi="96"
   inkscape:export-ydpi="96"
   inkscape:version="1.4.2 (ebf0e940, 2025-05-08)"
   xmlns:inkscape="http://www.inkscape.org/namespaces/inkscape"
   xmlns:sodipodi="http://sodipodi.sourceforge.net/DTD/sodipodi-0.dtd"
   xmlns="http://www.w3.org/2000/svg"
   xmlns:svg="http://www.w3.org/2000/svg">
  <defs
     id="defs30" />
  <sodipodi:namedview
     id="namedview30"
     pagecolor="#ffffff"
     bordercolor="#000000"
     borderopacity="0.25"
     inkscape:showpageshadow="2"
     inkscape:pageopacity="0.0"
     inkscape:pagecheckerboard="0"
     inkscape:deskcolor="#d1d1d1"
     showgrid="false"
     inkscape:zoom="0.37826263"
     inkscape:cx="894.88089"
     inkscape:cy="812.92725"
     inkscape:window-width="1536"
     inkscape:window-height="834"
     inkscape:window-x="0"
     inkscape:window-y="25"
     inkscape:window-maximized="1"
     inkscape:current-layer="svg30"
     inkscape:document-units="pt">
    <inkscape:page
       x="0"
       y="0"
       width="1343.3329"
       height="1219.3909"
       id="page2"
       margin="0"
       bleed="0" />
  </sodipodi:namedview>
  <path
     d="m 1272.131,291.8532 c 18.2487,-16.9273 34.8616,-35.4756 52.0565,-53.4406 0.944,8.2119 -1.4159,16.3761 -2.9258,24.3838 -5.6955,19.1459 -12.3186,38.7943 -25.6904,54.0855 -15.1021,18.5634 -21.2217,42.1767 -26.2871,65.0501 -1.4636,6.875 -2.297,14.2687 -6.6075,20.0743 -2.722,3.539 -6.3555,7.2363 -11.1377,7.2991 -12.9161,0.8183 -26.6657,-1.856 -38.7314,4.1374 -16.1251,7.7397 -26.6809,22.811 -37.5207,36.4193 -17.9806,23.4237 -35.2228,47.4303 -54.526,69.7851 -6.0875,7.9921 -12.8524,15.4174 -20.3562,22.1028 -16.8332,17.3211 -36.5445,31.9826 -58.7263,41.6889 -20.53,8.2436 -36.1673,24.7152 -50.1527,41.2799 -10.7605,-3.7753 -20.1212,-10.4295 -30.095,-15.7946 -19.3496,-10.1308 -37.6455,-22.118 -56.2563,-33.4925 -3.225,-2.0447 -6.5446,-4.0429 -9.1399,-6.8585 1.8092,-4.6414 6.7488,-6.9692 10.4456,-9.9587 15.5432,-10.335 29.6704,-23.5343 47.8089,-29.2762 14.1269,-4.4054 28.9146,-8.1651 40.9179,-17.2734 49.6332,-35.1608 98.4486,-71.4534 147.6417,-107.2269 46.1098,-34.0597 87.6257,-73.7664 129.2824,-112.9848 z"
     style="fill:#ffffff;fill-rule:evenodd"
     id="path1" />
  <path
     d="m 208.6392,389.389 c 19.7907,-8.2904 41.8463,-8.1018 62.8169,-5.6478 4.0268,0.6769 9.7691,1.2901 10.9018,6.0728 2.3443,10.5241 0.0633,21.3635 -1.7619,31.7939 -3.3195,19.6645 -16.6597,35.4743 -29.4965,49.9481 -6.5606,-2.6431 -13.1052,-6.5762 -20.4516,-5.931 -10.2101,-0.0312 -19.3657,8.4006 -20.6241,18.4529 -2.2341,12.9157 -0.173,27.9393 9.8008,37.2839 4.5624,4.846 10.2726,9.0936 17.1004,9.754 6.0879,0.6609 13.3879,0.346 17.9025,-4.3738 2.7849,-2.6426 1.526,-7.2201 -1.4475,-9.1394 -7.2991,-1.2433 -16.3293,3.3819 -22.1657,-2.8638 -7.1582,-6.0875 -10.6971,-15.4321 -9.6122,-24.746 -1.1951,-7.2523 6.4813,-12.9157 13.1989,-11.8615 6.3715,0.8973 10.7136,6.3716 16.6285,8.4006 4.2636,1.1956 6.9379,-2.9258 9.3763,-5.6313 8.1174,-10.352 17.5565,-19.9008 23.3145,-31.8729 4.4517,-9.2657 8.7305,-18.7837 10.2409,-29.0247 1.7775,-9.1555 1.2745,-18.4845 1.2901,-27.7346 7.032,2.029 12.1607,7.4877 17.3523,12.3333 6.3082,6.3867 12.4434,13.4508 15.4321,22.0712 2.4384,8.4483 2.2497,17.5886 6.1196,25.6432 6.0099,13.0102 17.7612,22.0716 30.0008,28.8677 -2.5962,6.3399 -11.1854,9.2023 -10.8394,16.7538 -0.3143,4.578 1.6678,9.1556 0.9597,13.6707 -2.5169,2.8165 -5.7892,4.8616 -8.1647,7.8034 -2.1084,4.7818 4.1691,7.4878 4.83,11.7509 0.5815,5.6478 0.3616,11.3589 -0.0946,17.0223 -0.4249,8.0068 -8.1651,13.7023 -15.5275,15.0236 -11.9399,1.258 -23.9909,0.3621 -35.868,-1.0858 -3.2563,-0.582 -7.1894,1.8408 -7.1422,5.3646 -0.6604,9.1872 -0.5663,18.815 3.0993,27.4363 2.5802,6.6698 6.8277,12.5063 11.012,18.2482 -8.1179,3.2571 -16.8016,4.8616 -24.6987,8.6841 -15.606,7.2996 -31.0385,17.4937 -39.0458,33.3044 -4.3733,7.7865 -5.176,16.8011 -7.1426,25.343 -4.1213,-12.9313 -3.9327,-26.7749 -5.7887,-40.1312 -0.3625,-14.9924 -2.4856,-29.8898 -2.0923,-44.9139 -0.7086,-9.6117 -0.8495,-19.7278 -4.924,-28.6469 -7.1422,-13.0892 -21.5687,-19.3189 -31.1965,-30.2207 -9.7851,-8.81 -17.9494,-19.24 -24.2268,-30.8031 -10.6659,-16.9581 -12.5696,-37.8026 -9.6902,-57.2472 5.8047,-26.445 25.4376,-49.2716 50.6241,-59.1513 z m 95.3186,68.6217 v 0 c -1.8877,2.8633 -0.7711,6.2453 -0.2988,9.3446 6.182,1.0702 14.3783,3.8854 19.3024,-1.526 0.3148,-2.706 0.4405,-5.9934 -1.7303,-7.9917 -5.5688,-1.3685 -11.9248,-2.47 -17.2733,0.1731 z"
     style="fill:#ffffff;fill-rule:evenodd"
     id="path2" />
  <path
     d="m 666.6508,454.1096 c 6.5129,-7.1426 12.2084,-16.0154 21.6631,-19.4758 3.1301,7.7865 0.2672,16.1406 -4.2007,22.7316 -2.627,3.0368 -1.0386,8.4327 3.0203,9.156 2.5169,1.0069 4.9713,-0.9909 6.3083,-2.9575 3.9643,-5.6478 5.7735,-12.6954 11.028,-17.4464 3.1461,9.7063 -2.5008,19.2088 -5.0025,28.3955 -1.1171,2.9419 1.4631,6.4978 4.7349,5.7267 4.3898,0.4718 6.4973,-4.0428 7.9132,-7.4101 2.4071,-5.065 2.8005,-11.6885 8.1174,-14.7873 1.1175,9.6118 -5.9934,17.6667 -6.0251,27.1366 0.0946,4.7198 7.5203,7.3624 10.1941,3.0841 2.8951,-5.5064 4.059,-11.7361 6.8746,-17.2889 3.807,3.901 2.3916,10.0367 1.4952,14.8505 -5.2705,16.1247 -14.7881,30.4879 -25.3122,43.6711 -6.2775,8.3689 -13.7813,15.8254 -19.3345,24.7459 -9.6278,14.7249 -15.6377,31.3998 -21.7412,47.7924 -5.4119,12.1295 -9.9739,24.6046 -14.6932,37.0164 -10.0055,23.7555 -18.658,48.0448 -28.7888,71.7521 -5.0971,12.2553 -9.3763,25.1553 -17.8558,35.617 -4.924,5.9622 -8.4005,14.5041 -16.6446,16.4395 -5.7575,1.6357 -11.531,3.1938 -17.2256,5.0029 -8.3694,2.7372 -17.2734,1.2736 -25.8943,1.51 -9.4391,0.2988 -18.8622,-0.2988 -28.2545,-1.2116 -21.4576,-0.2832 -42.7895,-3.0048 -64.1066,-5.3486 -27.6561,-3.728 -55.3911,-7.5827 -82.4332,-14.5986 -13.0258,-2.2654 -24.9979,-8.0389 -37.6937,-11.453 -2.3755,-0.4246 -5.5372,-1.5573 -7.378,0.6604 -2.863,2.8946 -0.5664,7.6456 2.8473,8.9045 11.0436,5.3962 23.1097,8.1334 34.862,11.5158 -0.4562,6.4808 -4.7515,11.61 -8.7475,16.3606 -6.0095,7.0163 -13.7492,12.9313 -22.8106,15.2283 -5.1131,1.4787 -9.8481,-1.8404 -14.2053,-3.9805 -14.08,-8.5107 -27.9085,-17.7295 -39.7071,-29.2918 -14.8038,-15.763 -22.1818,-36.6234 -27.9237,-57.0589 -3.9961,-15.4014 -2.3122,-33.6812 8.8411,-45.8263 8.3538,-9.6751 20.1684,-17.73 33.4614,-17.2578 19.2872,1.3213 38.5271,5.2545 56.2246,13.2145 23.4407,8.5896 46.8176,17.6042 71.1702,23.4085 24.5256,5.8525 48.9572,12.1135 73.6086,17.4937 17.0374,2.8317 33.5242,8.385 50.5777,11.028 4.2627,-1.3525 6.3394,-5.6634 8.5736,-9.1559 16.0622,-27.8131 32.6747,-55.2967 49.2872,-82.7798 13.8753,-22.4016 28.0494,-44.6467 41.044,-67.5674 3.6335,-6.4813 9.7847,-12.1924 9.8953,-20.0891 -0.2831,-10.6195 -4.8304,-20.8444 -3.4769,-31.558 1.3217,-13.6867 8.6364,-25.8942 17.7135,-35.8993 z"
     style="fill:#ffffff;fill-rule:evenodd"
     id="path3" />
  <path
     d="m 577.2319,473.255 c 7.0485,-15.181 23.991,-24.085 40.3836,-23.7238 11.0281,0.2992 22.5903,-1.4475 33.1153,2.7059 -4.4054,7.8191 -9.5965,15.3224 -12.224,23.9905 -3.5082,10.6196 -3.225,22.1033 -1.0065,32.9579 0.771,5.349 2.6587,10.9179 1.3057,16.2981 -4.1213,7.6773 -9.5016,14.6303 -13.8124,22.213 -7.8976,11.9097 -14.2531,24.8565 -23.0626,36.1677 -8.1173,-11.028 -12.3181,-24.258 -17.6827,-36.7019 -3.7592,-11.9877 -8.0228,-23.8652 -10.9491,-36.0888 -1.4943,-12.5857 -2.3911,-26.3031 3.9327,-37.8186 z"
     style="fill:#ffffff;fill-rule:evenodd"
     id="path4" />
  <path
     d="m 135.4083,481.561 c 3.1465,-0.4405 7.2523,-1.3213 9.7856,1.1171 2.1231,4.1998 2.4224,9.0771 4.0741,13.4981 3.8547,10.5085 9.659,20.1831 16.015,29.3551 1.3841,2.3122 3.7124,5.1127 1.7935,7.8342 -3.3195,6.2298 -8.6369,13.5761 -16.5817,13.0415 -10.7127,1.0386 -20.6714,-5.49 -27.0742,-13.5761 -6.3399,-7.9449 -6.3399,-18.6741 -5.2857,-28.2702 1.5577,-9.754 7.2211,-20.0734 17.2734,-22.9997 z"
     style="fill:#ffffff;fill-rule:evenodd"
     id="path5" />
  <path
     d="m 745.4826,490.4022 c 2.627,0.1886 4.7822,1.9661 7.0164,3.225 24.0061,15.3857 48.154,30.5507 72.2551,45.8107 26.2403,17.4464 52.9212,34.2323 79.8223,50.6241 24.9823,15.2911 50.782,29.1357 76.5661,43.011 26.8543,14.5826 53.0789,30.33 78.2811,47.6667 25.863,16.5969 49.6809,37.221 79.1457,47.3362 -6.6382,3.9331 -14.756,3.2254 -22.1657,3.6812 -22.465,1.0546 -44.3475,-5.1283 -65.7583,-11.0905 -10.509,-2.722 -20.2781,-8.2752 -31.2272,-9.0926 -15.2127,-0.7394 -29.072,7.7401 -44.253,7.378 -5.8056,-0.598 -10.7765,-4.3737 -14.4577,-8.6837 -4.751,-5.679 -4.8612,-13.4352 -6.4184,-20.3258 -1.5576,-8.5736 -6.293,-16.2188 -12.051,-22.6059 -8.7149,-9.4869 -18.8462,-18.6107 -31.6834,-21.7889 -16.7538,-3.8699 -33.8863,-6.1352 -50.451,-10.8234 -24.164,-4.6877 -48.2179,-10.2565 -71.5323,-18.2642 -17.3046,-5.6946 -34.7198,-11.4526 -50.9394,-19.8375 -4.1998,-1.9978 -6.6387,-6.1044 -8.9509,-9.911 -5.7896,-9.7856 -12.3025,-19.0985 -18.6892,-28.4748 -1.1799,-1.9822 -2.8477,-4.0429 -2.47,-6.4813 1.3373,-2.7371 3.4609,-4.9864 5.4279,-7.2839 11.1065,-12.4595 21.4576,-26.0516 27.3881,-41.8146 1.6839,-4.0897 2.6908,-8.5107 5.1448,-12.2548 z"
     style="fill:#ffffff;fill-rule:evenodd"
     id="path6" />
  <path
     d="m 684.9623,590.5975 c 4.3421,-8.5267 7.0792,-17.903 12.8849,-25.6275 2.3122,2.6747 4.5151,5.4591 6.434,8.4326 19.8062,30.5191 41.0752,60.1266 59.2458,91.6838 12.6325,22.386 26.5234,44.7409 32.3599,70.0848 6.5597,27.0742 4.2159,56.7753 -8.5268,81.7576 -7.7869,16.2821 -19.7278,31.3842 -36.277,39.3606 -4.3421,1.9506 -9.25,1.4471 -13.8753,1.6045 -47.5574,-0.2363 -95.1299,0.2515 -142.7025,-0.2203 -15.6051,-22.4333 -24.9818,-51.3951 -18.3744,-78.5794 6.3872,-1.526 12.9001,-2.6587 19.161,-4.7194 6.5451,-2.2185 11.2956,-7.5827 15.2444,-12.995 5.5532,-7.7397 10.7448,-15.7786 14.8979,-24.3526 1.3841,-2.9887 3.1777,-5.7575 5.4747,-8.1174 2.1552,13.6706 3.225,27.546 7.0793,40.9027 2.0923,6.2765 1.117,15.5899 8.5419,18.39 4.5784,1.1487 8.4795,-3.6813 6.4344,-7.9756 -6.6543,-24.4945 -10.9651,-49.5548 -14.0015,-74.7417 -0.1253,-4.4362 2.6431,-8.212 4.421,-12.0662 6.0723,-11.0436 9.2189,-23.314 13.7335,-35.0185 3.4609,-10.7605 8.5268,-20.8913 12.5224,-31.4475 4.7987,-12.2392 9.3763,-24.6046 15.3224,-36.3555 z"
     style="fill:#ffffff;fill-rule:evenodd"
     id="path7" />
  <path
     d="m 749.4309,615.8625 c 11.6729,3.2407 22.7798,8.212 34.421,11.594 6.7016,2.2024 13.7808,3.5866 19.9793,7.1265 -8.4639,7.5822 -16.88,15.4486 -26.7281,21.2221 -3.9483,2.7055 -6.0407,-3.3191 -7.8503,-5.8364 -6.198,-11.61 -14.9295,-21.8358 -19.8219,-34.1062 z"
     style="fill:#ffffff;fill-rule:evenodd"
     id="path8" />
  <path
     d="m 310.596,624.924 c 14.426,-3.0525 29.3243,-2.4076 43.9702,-1.7468 21.7573,3.4297 43.577,7.5828 64.2484,15.4491 15.5588,5.852 29.1977,17.21 37.0953,31.888 -19.6021,-1.7467 -37.8824,-9.4391 -56.3352,-15.6688 -25.6896,-7.9917 -50.0582,-20.2781 -76.4559,-25.8947 -4.2476,-1.0225 -9.2501,-0.6765 -12.5228,-4.0268 z"
     style="fill:#ffffff;fill-rule:evenodd"
     id="path9" />
  <path
     d="m 811.6182,643.1249 c 2.2497,-1.9193 4.2319,-5.0181 7.5666,-4.7818 8.7627,0.0624 16.8337,4.0585 25.4073,5.411 11.4838,1.9193 22.6059,5.5849 34.1374,7.2839 12.2548,1.9198 24.5568,4.2793 36.1044,8.9513 12.4122,4.4839 21.1436,15.7001 26.3508,27.4046 2.9887,5.4588 -2.9579,9.4865 -6.0727,13.1365 -23.1571,25.5793 -45.0557,52.4176 -70.2579,76.0621 -16.6125,14.9295 -33.2098,29.9843 -51.5052,42.8692 -6.4969,4.4679 -12.2704,9.9578 -19.3497,13.5293 3.3035,-8.5745 8.4162,-16.361 10.9331,-25.2498 8.7314,-24.6514 8.5735,-51.6627 3.0832,-76.9906 -5.2068,-20.2152 -14.1425,-39.2505 -24.5725,-57.2636 -1.0225,-2.0763 -3.2567,-5.3009 -0.4718,-7.0316 10.0055,-7.1738 20.0417,-14.4577 28.647,-23.3305 z"
     style="fill:#ffffff;fill-rule:evenodd"
     id="path10" />
  <path
     d="m 375.7251,762.5602 c 41.815,8.1018 84.1336,13.7808 126.6559,16.4082 20.4038,2.1709 40.9963,1.2108 61.4791,0.8652 -0.6921,9.329 -1.7459,18.7516 -0.4241,28.0806 2.3282,17.1164 5.7731,34.8299 16.187,49.0669 -20.8123,2.0616 -41.7356,-0.3617 -62.4231,-2.7523 -23.0937,-2.5802 -45.5426,-8.8728 -67.8185,-15.276 -4.5308,-1.3526 -8.8889,-3.2095 -13.3255,-4.8451 -8.5107,-3.1934 -17.6663,-4.1847 -26.0829,-7.6456 -6.9374,-2.8157 -13.6867,-6.1669 -20.9229,-8.212 -11.8146,-3.2566 -22.5751,-9.1876 -33.8542,-13.8124 -4.0121,-1.6518 -7.7878,-3.7758 -11.4213,-6.1192 5.852,-4.0589 12.2708,-7.5198 16.9902,-12.9634 6.4027,-6.5757 10.776,-14.7248 14.9603,-22.7949 z"
     style="fill:#ffffff;fill-rule:evenodd"
     id="path11" />
  <path
     d="m 55.0826,992.4942 c 10.2574,-1.1804 20.5768,-0.3617 30.8494,-0.4094 11.1859,0.1731 23.3934,0.8339 32.4549,8.228 8.7149,6.2454 12.0822,17.4937 11.4525,27.8131 0.0156,12.8528 -9.2344,24.4788 -20.9389,29.1197 -7.2206,3.1149 -15.1806,3.7913 -22.9685,3.6495 -10.257,-0.1886 -20.5291,0.2676 -30.7861,-0.4089 -0.8656,-22.638 -0.6457,-45.354 -0.0633,-67.992 z"
     style="fill:#ffffff;fill-rule:evenodd"
     id="path12" />
  <path
     d="m 641.0085,1049.8676 c 9.5337,-11.3429 27.4675,-13.7808 40.1785,-6.6548 10.6191,5.8677 15.779,18.2331 16.2035,29.9215 -1.1326,2.0139 -3.8386,1.4315 -5.7262,1.7307 -20.011,-0.032 -40.0215,-0.032 -60.0321,0.016 -0.8963,-9.2978 3.4297,-18.1706 9.3763,-25.0135 z"
     style="fill:#ffffff;fill-rule:evenodd"
     id="path13" />
  <path
     d="m 991.0378,1042.8351 c 12.0818,-2.4227 26.0993,0.425 34.2948,10.2098 9.172,10.7136 10.5562,25.5642 10.1,39.0935 -0.8651,11.2639 -4.0745,23.2672 -12.6164,31.1959 -14.1585,13.2778 -39.3763,11.5467 -51.5526,-3.5866 -2.0767,-2.8166 -1.4479,-6.5607 -1.6522,-9.8164 0.3465,-16.2986 -0.0312,-32.6123 0.0941,-48.91 -0.1886,-3.8542 1.5104,-7.4886 4.6253,-9.7539 4.7987,-4.0746 10.4773,-7.2519 16.707,-8.4323 z"
     style="fill:#ffffff;fill-rule:evenodd"
     id="path14" />
  <path
     d="m 1160.9086,1042.6938 c 9.9577,-2.0295 21.0647,-0.3933 29.1348,6.0727 8.5268,6.5758 13.2773,16.9742 14.9612,27.4042 2.1708,15.7474 0.5347,33.4457 -10.5406,45.7478 -13.5605,15.6212 -42.0978,13.5765 -52.8895,-4.232 -8.6052,-13.0102 -8.8884,-29.4024 -6.7492,-44.3319 2.7059,-13.5444 11.6576,-27.8131 26.0833,-30.6608 z"
     style="fill:#ffffff;fill-rule:evenodd"
     id="path15" />
  <path
     d="m 396.4598,1093.3651 c 9.5488,-0.8334 19.3653,-2.454 28.8521,-0.5975 0.5035,0.425 1.526,1.2901 2.0446,1.7302 0.9914,8.1339 1.0074,16.4868 0,24.6202 -2.5008,7.0008 -8.9669,12.0978 -15.9043,14.3632 -10.5558,3.7597 -23.0313,4.4678 -32.911,-1.5421 -9.7063,-5.3802 -11.61,-19.916 -4.5936,-28.2068 5.3334,-6.9062 14.2213,-9.3914 22.5122,-10.3672 z"
     style="fill:#ffffff;fill-rule:evenodd"
     id="path16" />
  <path
     d="m 590.4941,17.7599 c 23.5348,-4.2944 47.3523,-6.859 71.217,-8.1803 17.4469,0.2832 34.9717,-0.8963 52.3553,1.2111 58.7575,4.2793 116.493,21.2534 168.2497,49.4295 72.917,39.3289 133.2161,101.2803 171.3656,174.7466 8.6521,14.4109 14.3939,30.2992 19.9164,46.1099 15.4165,39.5176 21.9294,81.9463 24.3526,124.0913 -1.3373,6.6391 -8.7782,10.4305 -14.8827,11.8463 -0.346,-40.6195 -7.1889,-81.0811 -19.6961,-119.734 -13.1828,-36.6074 -30.4878,-71.9091 -53.5347,-103.3571 C 999.2497,179.0414 987.8761,164.5837 974.7718,151.8411 940.1461,113.2037 896.5224,83.251 849.5786,61.5259 796.6887,37.5817 738.7811,23.8322 680.589,24.7606 c -30.2832,-0.6609 -60.5823,2.5173 -90.189,8.8256 -22.4181,5.4903 -45.1029,10.5874 -66.1677,20.2464 -6.9062,3.9331 -14.4733,6.4184 -21.7572,9.5332 -34.2159,16.4239 -66.1824,37.5831 -94.4994,62.8638 -39.0775,33.6348 -70.714,75.481 -94.3589,121.2128 -5.585,11.956 -12.0667,23.5503 -15.7002,36.3086 -9.8164,25.281 -14.9451,51.9775 -20.4355,78.4381 -4.4522,-0.1574 -8.8728,-0.8808 -13.0726,-2.3599 0.8803,-20.1363 6.0719,-39.7847 11.4998,-59.1036 12.8836,-43.2153 33.7441,-83.9285 60.6452,-120.0797 13.8593,-18.9256 29.8113,-36.1989 45.8736,-53.2516 28.411,-25.7528 58.8364,-49.8223 93.0215,-67.505 35.8208,-19.9945 74.9767,-33.6495 115.0455,-42.1294 z"
     style="fill:#84756f;fill-rule:evenodd"
     id="path17" />
  <path
     d="m 1309.872,233.6299 c 5.238,-5.9622 12.538,-13.5922 21.3162,-10.2887 5.5533,3.3669 6.3868,10.6976 6.0568,16.6286 -1.6839,24.0226 -8.1807,47.8874 -19.8375,69.0145 -6.1045,10.3993 -14.8671,18.9885 -20.4984,29.7017 -8.2285,14.7248 -12.0506,31.2744 -15.2444,47.6827 -2.5012,12.1451 -6.0094,26.0672 -17.5565,32.7219 -10.8073,5.9934 -23.6128,1.6834 -35.2388,3.7758 -14.6303,1.0069 -25.092,12.6793 -33.7606,23.2828 -20.4667,25.2489 -39.2028,51.8825 -59.9687,76.9116 -24.2897,28.8053 -51.7572,57.1063 -87.3582,71.4534 -11.8931,5.0346 -22.1818,13.1988 -31.1643,22.3388 -4.3889,4.4999 -9.2813,8.6841 -12.1763,14.3788 19.2712,11.1225 38.3698,22.6067 56.9016,34.9561 21.2065,13.2456 41.1064,28.4427 62.5493,41.2955 8.8724,5.2389 18.5162,9.1087 28.6158,11.1377 4.0429,0.7086 8.983,2.8951 8.9513,7.7245 1.085,4.6565 -3.2411,7.7558 -6.8121,9.6434 -12.695,6.6708 -27.4359,7.0949 -41.4374,7.9765 -19.4281,-0.7871 -39.0931,-2.7849 -57.6244,-8.9513 -16.8493,-5.3963 -34.4683,-13.498 -52.481,-8.8728 -13.5922,3.8386 -28.8521,7.803 -42.2556,1.1327 -7.8343,-3.6968 -11.2006,-12.0189 -15.842,-18.7369 -35.9781,43.0739 -74.2061,84.9353 -119.5922,118.3338 -11.8767,8.6686 -23.6289,17.5565 -36.3399,24.9667 -2.6109,1.4154 -4.8607,3.3659 -6.623,5.7575 174.2128,0.6131 348.4569,0.0624 522.6849,0.2671 10.7605,0.2207 21.6311,-0.8812 32.297,1.2111 0.1574,3.5403 1.7779,8.3221 -1.9354,10.6664 -3.1304,1.2428 -6.5597,1.3057 -9.8632,1.4158 -427.398,-0.0468 -854.7804,-0.016 -1282.1785,-0.0624 -7.2362,-0.1735 -14.5669,0.6604 -21.7247,-0.5984 -5.6794,-0.582 -6.3398,-9.7848 -1.2428,-11.6885 2.2961,-0.771 4.7506,-0.8963 7.1734,-0.9757 127.9611,0.0317 255.9383,0.0161 383.9151,0.0161 17.9659,-0.33 35.9474,0.4562 53.8968,-0.3777 -1.699,-1.4315 -3.5554,-2.6739 -5.7418,-3.0993 -29.7641,-7.5511 -59.3873,-16.2816 -87.4055,-28.9935 -7.1733,-2.9258 -14.6147,-5.1755 -21.5365,-8.6837 -23.6605,-11.7986 -47.9342,-23.1415 -68.4794,-40.0523 -5.1136,-4.3577 -10.5718,-8.2913 -15.4803,-12.8684 -18.3744,-19.7755 -34.2796,-42.9161 -40.6351,-69.5033 -4.6252,-20.5769 -5.5055,-41.7045 -7.1104,-62.6746 -0.7867,-16.1407 -3.1149,-32.1873 -3.4454,-48.3588 -0.4245,-10.4773 -8.904,-17.9191 -16.7859,-23.6132 -7.535,-5.2233 -13.8125,-12.0194 -21.5049,-17.0058 -4.924,6.4651 -10.5089,13.2924 -18.7677,15.3692 -12.4126,4.2007 -25.5638,-0.5664 -36.2145,-7.0632 -6.8117,-4.2008 -11.0905,-11.3585 -14.0796,-18.5791 -7.8659,-19.8852 -4.0745,-46.2044 14.3627,-59.0095 5.8837,-4.6248 13.718,-4.5468 20.8289,-4.3581 0.346,-11.1378 1.9188,-22.2443 4.8451,-32.9887 5.7111,-19.429 18.5478,-36.5449 35.0502,-48.1705 11.3584,-6.7493 23.2828,-13.0575 36.3719,-15.6689 13.2613,-2.6903 26.948,-4.7671 40.4777,-2.9579 11.0437,1.3217 22.2599,2.6587 32.6747,6.7653 15.2591,5.7102 28.9302,16.1246 37.5671,30.0468 8.0072,12.2708 11.2951,26.7125 16.1875,40.3203 3.3512,10.273 13.8909,14.9455 22.386,20.2312 4.6253,2.8478 10.9335,6.1357 10.5719,12.4907 0.3308,8.7939 -8.81,13.309 -11.7826,20.7031 0.1102,4.153 1.3213,8.1959 1.5416,12.3649 -0.771,4.9401 -5.4904,8.7159 -4.751,14.0484 0.4718,11.9087 1.0542,24.4944 -4.2475,35.538 -5.2077,9.2506 -15.9682,13.4192 -26.02,14.7093 -9.6911,1.7614 -19.4447,-0.1262 -29.1358,-0.6926 -0.2198,9.3767 3.9176,18.2647 8.8885,25.9892 3.1469,4.0112 6.7015,9.4071 12.4915,9.0771 25.3431,-0.2364 50.5296,3.7597 74.9612,10.3355 13.2933,2.5958 25.863,7.9127 37.6928,14.3627 13.6867,8.6213 23.5664,21.8201 32.7224,34.8776 2.2653,3.7441 6.8589,4.232 10.7444,5.0971 19.1615,4.1218 38.3537,8.0701 57.4202,12.6481 6.1829,-9.3446 11.123,-19.413 16.9902,-28.9467 10.2886,-17.0058 20.514,-34.0428 30.8026,-51.033 2.376,-4.1218 5.16,-8.0549 6.6552,-12.6013 -12.381,-18.6419 -20.9238,-39.5961 -27.6878,-60.8503 -3.9488,-14.5041 -7.2215,-29.5121 -6.4349,-44.6303 0.9918,-18.3904 10.257,-36.9066 26.3826,-46.4559 12.6481,-7.1261 27.4987,-9.3129 41.8302,-9.0614 10.0844,0.1262 19.9953,2.2185 29.9848,3.2879 5.1755,1.0381 7.8966,-4.31 11.2791,-7.1578 5.679,-6.1191 14.3315,-11.0276 22.8426,-8.1802 4.4206,0.9596 5.9939,5.679 9.0615,8.4634 3.4136,1.0065 7.2054,0.755 10.446,2.3438 2.3751,3.0837 3.5867,6.8594 5.0654,10.4149 4.059,0.5186 8.385,0.4089 12.1291,2.281 2.8317,2.9418 3.1149,7.3936 4.3416,11.1537 3.2572,1.1795 7.5988,1.5412 9.2193,5.1123 2.7055,5.1603 2.1708,12.5696 8.212,15.4173 44.0327,27.0582 87.4049,55.2021 130.8245,83.2052 17.3679,-13.136 34.0116,-27.5152 53.3461,-37.7874 15.8575,-8.9357 35.0975,-9.8797 50.0894,-20.6714 26.1778,-18.2651 51.6315,-37.5675 77.7148,-55.9896 22.3856,-16.4078 45.2126,-32.2185 67.142,-49.2555 43.2149,-32.2974 83.5196,-68.3225 122.1096,-105.9685 20.168,-18.0916 39.8168,-36.8754 57.3894,-57.5624 z m -37.741,58.2233 v 0 c -41.6567,39.2184 -83.1726,78.9251 -129.2824,112.9848 -49.1931,35.7735 -98.0085,72.0661 -147.6417,107.2269 -12.0033,9.1083 -26.791,12.868 -40.9179,17.2734 -18.1385,5.7419 -32.2657,18.9412 -47.8089,29.2762 -3.6968,2.9895 -8.6364,5.3173 -10.4456,9.9587 2.5953,2.8156 5.9149,4.8138 9.1399,6.8585 18.6108,11.3745 36.9067,23.3617 56.2563,33.4925 9.9738,5.3651 19.3345,12.0193 30.095,15.7946 13.9854,-16.5647 29.6227,-33.0363 50.1527,-41.2799 22.1818,-9.7063 41.8931,-24.3678 58.7263,-41.6889 7.5038,-6.6854 14.2687,-14.1107 20.3562,-22.1028 19.3032,-22.3548 36.5454,-46.3614 54.526,-69.7851 10.8398,-13.6083 21.3956,-28.6796 37.5207,-36.4193 12.0657,-5.9934 25.8153,-3.3191 38.7314,-4.1374 4.7822,-0.0628 8.4157,-3.7601 11.1377,-7.2991 4.3105,-5.8056 5.1439,-13.1993 6.6075,-20.0743 5.0654,-22.8734 11.185,-46.4867 26.2871,-65.0501 13.3718,-15.2912 19.9949,-34.9396 25.6904,-54.0855 1.5099,-8.0077 3.8698,-16.1719 2.9258,-24.3838 -17.1949,17.965 -33.8078,36.5133 -52.0565,53.4406 z M 208.6392,389.389 v 0 c -25.1865,9.8797 -44.8194,32.7063 -50.6241,59.1513 -2.8794,19.4446 -0.9757,40.2891 9.6902,57.2472 6.2774,11.5631 14.4417,21.9931 24.2268,30.8031 9.6278,10.9018 24.0543,17.1315 31.1965,30.2207 4.0745,8.9191 4.2154,19.0352 4.924,28.6469 -0.3933,15.0241 1.7298,29.9215 2.0923,44.9139 1.856,13.3563 1.6674,27.1999 5.7887,40.1312 1.9666,-8.5419 2.7693,-17.5565 7.1426,-25.343 8.0073,-15.8107 23.4398,-26.0048 39.0458,-33.3044 7.8971,-3.8225 16.5808,-5.427 24.6987,-8.6841 -4.1843,-5.7419 -8.4318,-11.5784 -11.012,-18.2482 -3.6656,-8.6213 -3.7597,-18.2491 -3.0993,-27.4363 -0.0472,-3.5238 3.8859,-5.9466 7.1422,-5.3646 11.8771,1.4479 23.9281,2.3438 35.868,1.0858 7.3624,-1.3213 15.1026,-7.0168 15.5275,-15.0236 0.4562,-5.6634 0.6761,-11.3745 0.0946,-17.0223 -0.6609,-4.2631 -6.9384,-6.9691 -4.83,-11.7509 2.3755,-2.9418 5.6478,-4.9869 8.1647,-7.8034 0.7081,-4.5151 -1.274,-9.0927 -0.9597,-13.6707 -0.346,-7.5515 8.2432,-10.4139 10.8394,-16.7538 -12.2396,-6.7961 -23.9909,-15.8575 -30.0008,-28.8677 -3.8699,-8.0546 -3.6812,-17.1949 -6.1196,-25.6432 -2.9887,-8.6204 -9.1239,-15.6845 -15.4321,-22.0712 -5.1916,-4.8456 -10.3203,-10.3043 -17.3523,-12.3333 -0.0156,9.2501 0.4874,18.5791 -1.2901,27.7346 -1.5104,10.241 -5.7892,19.759 -10.2409,29.0247 -5.758,11.9721 -15.1971,21.5209 -23.3145,31.8729 -2.4384,2.7055 -5.1127,6.8269 -9.3763,5.6313 -5.9149,-2.029 -10.257,-7.5033 -16.6285,-8.4006 -6.7176,-1.0542 -14.394,4.6092 -13.1989,11.8615 -1.0849,9.3139 2.454,18.6585 9.6122,24.746 5.8364,6.2457 14.8666,1.6205 22.1657,2.8638 2.9735,1.9193 4.2324,6.4968 1.4475,9.1394 -4.5146,4.7198 -11.8146,5.0347 -17.9025,4.3738 -6.8278,-0.6604 -12.538,-4.908 -17.1004,-9.754 -9.9738,-9.3446 -12.0349,-24.3682 -9.8008,-37.2839 1.2584,-10.0523 10.414,-18.4841 20.6241,-18.4529 7.3464,-0.6452 13.891,3.2879 20.4516,5.931 12.8368,-14.4738 26.177,-30.2836 29.4965,-49.9481 1.8252,-10.4304 4.1062,-21.2698 1.7619,-31.7939 -1.1327,-4.7827 -6.875,-5.3959 -10.9018,-6.0728 -20.9706,-2.454 -43.0262,-2.6426 -62.8169,5.6478 z m 458.0116,64.7206 v 0 c -9.0771,10.0051 -16.3918,22.2126 -17.7135,35.8993 -1.3535,10.7136 3.1938,20.9385 3.4769,31.558 -0.1106,7.8967 -6.2618,13.6078 -9.8953,20.0891 -12.9946,22.9207 -27.1687,45.1658 -41.044,67.5674 -16.6125,27.4831 -33.225,54.9667 -49.2872,82.7798 -2.2342,3.4925 -4.3109,7.8034 -8.5736,9.1559 -17.0535,-2.643 -33.5403,-8.1963 -50.5777,-11.028 -24.6514,-5.3802 -49.083,-11.6412 -73.6086,-17.4937 -24.3526,-5.8043 -47.7295,-14.8189 -71.1702,-23.4085 -17.6975,-7.96 -36.9374,-11.8932 -56.2246,-13.2145 -13.293,-0.4722 -25.1076,7.5827 -33.4614,17.2578 -11.1533,12.1451 -12.8372,30.4249 -8.8411,45.8263 5.7419,20.4355 13.1199,41.2959 27.9237,57.0589 11.7986,11.5623 25.6271,20.7811 39.7071,29.2918 4.3572,2.1401 9.0922,5.4592 14.2053,3.9805 9.0614,-2.297 16.8011,-8.212 22.8106,-15.2283 3.996,-4.7506 8.2913,-9.8798 8.7475,-16.3606 -11.7523,-3.3824 -23.8184,-6.1196 -34.862,-11.5158 -3.4137,-1.2589 -5.7103,-6.0099 -2.8473,-8.9045 1.8408,-2.2177 5.0025,-1.085 7.378,-0.6604 12.6958,3.4141 24.6679,9.1876 37.6937,11.453 27.0421,7.0159 54.7771,10.8706 82.4332,14.5986 21.3171,2.3438 42.649,5.0654 64.1066,5.3486 9.3923,0.9128 18.8154,1.5104 28.2545,1.2116 8.6209,-0.2364 17.5249,1.2272 25.8943,-1.51 5.6946,-1.8091 11.4681,-3.3672 17.2256,-5.0029 8.2441,-1.9354 11.7206,-10.4773 16.6446,-16.4395 8.4795,-10.4617 12.7587,-23.3617 17.8558,-35.617 10.1308,-23.7073 18.7833,-47.9966 28.7888,-71.7521 4.7193,-12.4118 9.2813,-24.8869 14.6932,-37.0164 6.1035,-16.3926 12.1134,-33.0675 21.7412,-47.7924 5.5532,-8.9205 13.057,-16.377 19.3345,-24.7459 10.5241,-13.1832 20.0417,-27.5464 25.3122,-43.6711 0.8964,-4.8138 2.3118,-10.9495 -1.4952,-14.8505 -2.8156,5.5528 -3.9795,11.7825 -6.8746,17.2889 -2.6738,4.2783 -10.0995,1.6357 -10.1941,-3.0841 0.0317,-9.4699 7.1426,-17.5248 6.0251,-27.1366 -5.3169,3.0988 -5.7103,9.7223 -8.1174,14.7873 -1.4159,3.3673 -3.5234,7.8819 -7.9132,7.4101 -3.2718,0.7711 -5.852,-2.7848 -4.7349,-5.7267 2.5017,-9.1867 8.1486,-18.6892 5.0025,-28.3955 -5.2545,4.751 -7.0637,11.7986 -11.028,17.4464 -1.337,1.9666 -3.7914,3.9644 -6.3083,2.9575 -4.0589,-0.7233 -5.6473,-6.1192 -3.0203,-9.156 4.4679,-6.591 7.3308,-14.9451 4.2007,-22.7316 -9.4547,3.4604 -15.1502,12.3332 -21.6631,19.4758 z m -89.4189,19.1454 v 0 c -6.3238,11.5155 -5.427,25.2329 -3.9327,37.8186 2.9263,12.2236 7.1899,24.1011 10.9491,36.0888 5.3646,12.4439 9.5654,25.6739 17.6827,36.7019 8.8095,-11.3112 15.165,-24.258 23.0626,-36.1677 4.3108,-7.5827 9.6911,-14.5357 13.8124,-22.213 1.353,-5.3802 -0.5347,-10.9491 -1.3057,-16.2981 -2.2185,-10.8546 -2.5017,-22.3383 1.0065,-32.9579 2.6275,-8.6681 7.8186,-16.1714 12.224,-23.9905 -10.525,-4.1534 -22.0872,-2.4067 -33.1153,-2.7059 -16.3926,-0.3612 -33.3351,8.5428 -40.3836,23.7238 z m -441.8236,8.306 v 0 c -10.0523,2.9263 -15.7157,13.2457 -17.2734,22.9997 -1.0542,9.5961 -1.0542,20.3253 5.2857,28.2702 6.4028,8.0861 16.3615,14.6147 27.0742,13.5761 7.9448,0.5346 13.2622,-6.8117 16.5817,-13.0415 1.9189,-2.7215 -0.4094,-5.522 -1.7935,-7.8342 -6.356,-9.172 -12.1603,-18.8466 -16.015,-29.3551 -1.6517,-4.421 -1.951,-9.2983 -4.0741,-13.4981 -2.5333,-2.4384 -6.6391,-1.5576 -9.7856,-1.1171 z m 610.0743,8.8412 v 0 c -2.454,3.7441 -3.4609,8.1651 -5.1448,12.2548 -5.9305,15.763 -16.2816,29.3551 -27.3881,41.8146 -1.967,2.2975 -4.0906,4.5468 -5.4279,7.2839 -0.3777,2.4384 1.2901,4.4991 2.47,6.4813 6.3867,9.3763 12.8996,18.6892 18.6892,28.4748 2.3122,3.8066 4.7511,7.9132 8.9509,9.911 16.2196,8.3849 33.6348,14.1429 50.9394,19.8375 23.3144,8.0077 47.3683,13.5765 71.5323,18.2642 16.5647,4.6882 33.6972,6.9535 50.451,10.8234 12.8372,3.1782 22.9685,12.302 31.6834,21.7889 5.758,6.3871 10.4934,14.0323 12.051,22.6059 1.5572,6.8906 1.6674,14.6468 6.4184,20.3258 3.6812,4.31 8.6521,8.0857 14.4577,8.6837 15.181,0.3621 29.0403,-8.1174 44.253,-7.378 10.9491,0.8174 20.7182,6.3706 31.2272,9.0926 21.4108,5.9622 43.2933,12.1451 65.7583,11.0905 7.4097,-0.4558 15.5275,0.2519 22.1657,-3.6812 -29.4648,-10.1152 -53.2827,-30.7393 -79.1457,-47.3362 -25.2022,-17.3367 -51.4268,-33.0841 -78.2811,-47.6667 -25.7841,-13.8753 -51.5838,-27.7199 -76.5661,-43.011 -26.9011,-16.3918 -53.582,-33.1777 -79.8223,-50.6241 -24.1011,-15.26 -48.249,-30.425 -72.2551,-45.8107 -2.2342,-1.2589 -4.3894,-3.0364 -7.0164,-3.225 z m -60.5203,100.1953 v 0 c -5.9461,11.7509 -10.5237,24.1163 -15.3224,36.3555 -3.9956,10.5562 -9.0615,20.687 -12.5224,31.4475 -4.5146,11.7045 -7.6612,23.9749 -13.7335,35.0185 -1.7779,3.8542 -4.5463,7.63 -4.421,12.0662 3.0364,25.1869 7.3472,50.2472 14.0015,74.7417 2.0451,4.2943 -1.856,9.1243 -6.4344,7.9756 -7.4249,-2.8001 -6.4496,-12.1135 -8.5419,-18.39 -3.8543,-13.3567 -4.9241,-27.2321 -7.0793,-40.9027 -2.297,2.3599 -4.0906,5.1287 -5.4747,8.1174 -4.1531,8.574 -9.3447,16.6129 -14.8979,24.3526 -3.9488,5.4123 -8.6993,10.7765 -15.2444,12.995 -6.2609,2.0607 -12.7738,3.1934 -19.161,4.7194 -6.6074,27.1843 2.7693,56.1461 18.3744,78.5794 47.5726,0.4718 95.1451,-0.016 142.7025,0.2203 4.6253,-0.1574 9.5332,0.3461 13.8753,-1.6045 16.5492,-7.9764 28.4901,-23.0785 36.277,-39.3606 12.7427,-24.9823 15.0865,-54.6834 8.5268,-81.7576 -5.8365,-25.3439 -19.7274,-47.6988 -32.3599,-70.0848 -18.1706,-31.5572 -39.4396,-61.1647 -59.2458,-91.6838 -1.9189,-2.9735 -4.1218,-5.7579 -6.434,-8.4326 -5.8057,7.7245 -8.5428,17.1008 -12.8849,25.6275 z m 64.4686,25.265 v 0 c 4.8924,12.2704 13.6239,22.4962 19.8219,34.1062 1.8096,2.5173 3.902,8.5419 7.8503,5.8364 9.8481,-5.7735 18.2642,-13.6399 26.7281,-21.2221 -6.1985,-3.5399 -13.2777,-4.9241 -19.9793,-7.1265 -11.6412,-3.382 -22.7481,-8.3533 -34.421,-11.594 z M 310.596,624.924 v 0 c 3.2727,3.3503 8.2752,3.0043 12.5228,4.0268 26.3977,5.6166 50.7663,17.903 76.4559,25.8947 18.4528,6.2297 36.7331,13.9221 56.3352,15.6688 -7.8976,-14.678 -21.5365,-26.036 -37.0953,-31.888 -20.6714,-7.8663 -42.4911,-12.0194 -64.2484,-15.4491 -14.6459,-0.6608 -29.5442,-1.3057 -43.9702,1.7468 z m 501.0222,18.2009 v 0 c -8.6053,8.8728 -18.6415,16.1567 -28.647,23.3305 -2.7849,1.7307 -0.5507,4.9553 0.4718,7.0316 10.43,18.0131 19.3657,37.0484 24.5725,57.2636 5.4903,25.3279 5.6482,52.3392 -3.0832,76.9906 -2.5169,8.8888 -7.6296,16.6753 -10.9331,25.2498 7.0793,-3.5715 12.8528,-9.0614 19.3497,-13.5293 18.2954,-12.8849 34.8927,-27.9397 51.5052,-42.8692 25.2022,-23.6445 47.1008,-50.4828 70.2579,-76.0621 3.1148,-3.65 9.0614,-7.6777 6.0727,-13.1365 -5.2072,-11.7045 -13.9386,-22.9207 -26.3508,-27.4046 -11.5476,-4.672 -23.8496,-7.0315 -36.1044,-8.9513 -11.5315,-1.699 -22.6536,-5.3646 -34.1374,-7.2839 -8.5736,-1.3525 -16.6446,-5.3486 -25.4073,-5.411 -3.3347,-0.2363 -5.3169,2.8625 -7.5666,4.7818 z M 375.7251,762.5602 v 0 c -4.1843,8.0701 -8.5576,16.2192 -14.9603,22.7949 -4.7194,5.4436 -11.1382,8.9045 -16.9902,12.9634 3.6335,2.3434 7.4092,4.4674 11.4213,6.1192 11.2791,4.6248 22.0396,10.5558 33.8542,13.8124 7.2362,2.0451 13.9855,5.3963 20.9229,8.212 8.4166,3.4609 17.5722,4.4522 26.0829,7.6456 4.4366,1.6356 8.7947,3.4925 13.3255,4.8451 22.2759,6.4032 44.7248,12.6958 67.8185,15.276 20.6875,2.3906 41.6108,4.8139 62.4231,2.7523 -10.4139,-14.237 -13.8588,-31.9505 -16.187,-49.0669 -1.3218,-9.329 -0.268,-18.7516 0.4241,-28.0806 -20.4828,0.3456 -41.0753,1.3057 -61.4791,-0.8652 -42.5223,-2.6274 -84.8409,-8.3064 -126.6559,-16.4082 z"
     style="fill:#84756f;fill-rule:evenodd"
     id="path18" />
  <path
     d="m 303.9578,458.0107 c 5.3485,-2.6431 11.7045,-1.5416 17.2733,-0.1731 2.1708,1.9983 2.0451,5.2857 1.7303,7.9917 -4.9241,5.4114 -13.1204,2.5962 -19.3024,1.526 -0.4723,-3.0993 -1.5889,-6.4813 0.2988,-9.3446 z"
     style="fill:#84756f;fill-rule:evenodd"
     id="path19" />
  <path
     d="m 212.0372,951.8591 c 7.457,-0.33 15.9209,2.1084 19.7434,9.0614 6.6391,9.4864 3.5243,24.5734 -7.4253,29.3708 -12.0978,6.875 -31.1487,-0.4558 -32.1551,-15.2912 -2.4233,-11.7986 7.9287,-23.471 19.837,-23.141 z"
     style="fill:#84756f;fill-rule:evenodd"
     id="path20" />
  <path
     d="m 267.0979,951.3561 c 11.9561,-0.3465 23.9125,-0.3465 35.8685,-0.0794 1.1167,9.8481 0.4094,19.7434 0.4879,29.6231 0.0317,57.1848 -0.0161,114.3695 0.0317,171.5538 -0.1102,2.8633 0.346,7.5987 -3.8235,7.4886 -10.7605,0.4401 -21.5677,0.3456 -32.3282,-0.2524 -1.3369,-8.6837 -0.6604,-17.462 -0.6765,-26.177 -0.1262,-46.1567 -0.0473,-92.2978 -0.0785,-138.4545 0.1574,-14.5674 -0.5351,-29.1665 0.5186,-43.7022 z"
     style="fill:#84756f;fill-rule:evenodd"
     id="path21" />
  <path
     d="m 16.3199,965.1681 c -0.6448,-4.7506 4.8608,-4.9397 8.1803,-4.8451 23.6293,0.2042 47.2582,-0.1418 70.8866,0.0628 19.5387,0.4402 40.4933,5.0026 54.9194,19.067 10.9968,10.0367 17.5882,24.3994 18.7993,39.1715 1.9666,18.2643 -2.7683,38.1339 -16.2508,51.2221 -9.6278,10.6659 -23.2828,16.6914 -37.1265,19.6333 -19.9793,4.0585 -40.4304,0.4718 -60.5823,2.2341 -1.4792,22.622 0.6916,45.3857 -1.1643,67.992 -12.1139,0.425 -24.4633,1.6045 -36.4665,-0.3777 -2.2333,-4.0268 -1.2268,-8.8728 -1.4467,-13.2612 0.2355,-60.2996 -0.0793,-120.6148 0.2515,-180.8988 z m 38.7627,27.3261 v 0 c -0.5824,22.638 -0.8023,45.354 0.0633,67.992 10.257,0.6765 20.5291,0.2203 30.7861,0.4089 7.7879,0.1418 15.7479,-0.5346 22.9685,-3.6495 11.7045,-4.6409 20.9545,-16.2669 20.9389,-29.1197 0.6297,-10.3194 -2.7376,-21.5677 -11.4525,-27.8131 -9.0615,-7.3941 -21.269,-8.0549 -32.4549,-8.228 -10.2726,0.0477 -20.592,-0.771 -30.8494,0.4094 z"
     style="fill:#84756f;fill-rule:evenodd"
     id="path22" />
  <path
     d="m 795.6037,965.2782 c 16.4707,-6.3399 34.5151,-5.9626 51.8357,-4.7978 14.1746,2.0602 28.6162,7.2202 38.9044,17.5721 11.0749,10.2098 18.6103,25.2022 17.7457,40.4617 -12.2865,0.2515 -24.6358,3.068 -36.8599,1.0858 -1.4626,-9.7539 -5.8203,-19.9012 -14.7565,-24.9506 -11.4208,-6.2614 -25.6583,-6.9223 -37.8025,-2.4228 -7.6616,3.1617 -15.2443,8.6994 -17.7929,16.943 -3.4609,9.6594 2.1865,20.86 11.0593,25.3591 9.2344,4.7198 19.4134,7.1269 29.3083,10.0844 20.4194,6.0255 42.7899,10.8394 58.3642,26.4605 18.658,19.5388 15.3857,54.0695 -4.5307,71.5631 -16.7855,15.2132 -40.3354,21.2855 -62.6118,20.4043 -11.783,0.5347 -23.3773,-2.297 -34.4054,-6.2137 -17.7451,-6.8594 -33.3663,-20.8136 -39.3762,-39.2036 -1.5889,-4.2792 -1.6517,-8.8885 -1.2901,-13.3558 12.381,-0.6926 24.7303,-1.7784 37.1113,-2.3756 3.5082,10.1621 9.4071,20.073 19.3657,25.0443 15.1182,7.3941 34.2319,6.2454 48.3276,-3.0203 11.7669,-6.8429 12.0822,-26.1614 1.1487,-33.9171 -7.5515,-5.6955 -17.0379,-7.6933 -25.9575,-10.1941 -17.3523,-4.1535 -34.9718,-8.385 -50.7816,-16.9117 -9.2349,-5.6951 -17.6042,-13.6082 -21.8201,-23.7707 -5.9154,-13.482 -6.0407,-29.3868 -0.5351,-43.0106 6.5918,-14.8033 20.3882,-25.3752 35.3494,-30.8339 z"
     style="fill:#84756f;fill-rule:evenodd"
     id="path23" />
  <path
     d="m 507.6198,976.5105 c 11.7514,0.0785 23.6445,-1.1327 35.3334,0.5039 2.9102,11.7986 0.1253,24.2264 1.4627,36.2765 10.2258,0.8656 20.4988,-0.047 30.7085,0.9128 0.6609,8.8412 0.5976,17.7301 -0.0784,26.6024 -10.2575,1.4783 -20.7348,-0.8655 -30.8816,1.5728 -0.0473,23.5816 0.0468,47.1641 -0.0473,70.7613 -0.1414,5.9778 1.1643,13.0727 6.6391,16.4707 7.6768,3.2879 16.2348,1.1804 24.2581,0.8972 0.3148,9.5177 2.3438,19.6962 -0.6292,28.8678 -10.4305,2.9257 -21.4897,3.4604 -32.2662,2.9101 -11.2791,-0.5507 -22.3388,-6.5758 -28.1436,-16.3922 -4.7193,-7.992 -6.796,-17.321 -6.8433,-26.5395 -0.1414,-25.6271 0.1418,-51.2537 -0.2203,-76.8808 -7.9132,-1.9983 -16.1251,-0.3933 -24.1163,-1.6674 -0.4406,-8.7782 -0.5351,-17.5882 0.1409,-26.3508 7.9136,-1.1644 15.9209,-0.6609 23.8965,-1.1644 0.6925,-12.2548 -0.4562,-24.5564 0.787,-36.7804 z"
     style="fill:#84756f;fill-rule:evenodd"
     id="path24" />
  <path
     d="m 1282.0268,976.6835 c 11.1221,-0.944 22.3856,-0.4085 33.5394,0.1418 1.7779,12.113 -0.079,24.3526 1.1487,36.5133 10.2102,0.7711 20.4511,-0.095 30.6765,0.7077 0.5507,9.1716 0.9601,18.4217 -0.33,27.5616 -10.1152,0.4254 -20.3093,-0.5186 -30.3304,1.1804 -0.9757,21.8358 -0.048,43.7027 -0.4883,65.5536 -0.031,7.1266 -0.1102,15.7162 5.9309,20.6714 7.0793,4.3733 15.6529,1.6522 23.4086,1.7463 2.8317,1.3057 1.9198,4.8607 2.3287,7.3785 -0.016,6.6699 0.5191,13.4343 -0.6297,20.0574 -2.4852,3.0047 -7.3932,2.5017 -10.9803,3.3668 -13.0102,0.9592 -27.4987,3.1461 -39.0618,-4.3894 -12.9001,-6.8741 -17.8553,-22.4172 -18.3271,-36.1512 0.078,-23.6601 0.015,-47.321 0.1097,-70.9651 -0.3617,-2.643 0.5351,-6.4188 -2.6271,-7.5831 -7.1737,-1.7459 -14.6463,-0.6609 -21.804,0.5039 -1.2585,-9.4079 -0.7555,-18.8783 -0.5976,-28.317 8.4006,-1.6049 16.9746,-0.8339 25.4853,-1.1171 -0.016,-9.8485 -0.2047,-19.7117 -0.1579,-29.5598 0.3777,-2.5646 -0.6765,-6.4817 2.7064,-7.3 z"
     style="fill:#84756f;fill-rule:evenodd"
     id="path25" />
  <path
     d="m 393.6437,1011.5919 c 15.8263,-0.8803 32.9418,-0.6132 46.7864,8.1334 14.2686,8.5268 23.2507,24.8089 23.3929,41.3906 0.5664,22.9523 -0.189,45.9359 0.3456,68.8888 0.1731,8.9829 2.0768,17.8236 2.2186,26.8066 0.6608,3.6183 -3.6656,3.1148 -5.9787,3.4609 -9.7058,-0.047 -19.4598,0.173 -29.15,-0.6609 -1.0859,-2.8161 -0.4883,-7.2839 -3.8235,-8.4951 -6.1196,3.3824 -11.9716,7.3941 -18.7677,9.3602 -8.6364,3.2723 -17.981,2.3916 -27.0113,2.4861 -13.985,0.4718 -27.892,-5.4435 -37.8658,-15.1498 -16.9434,-17.6979 -13.4976,-50.4988 7.7401,-63.3516 20.7026,-12.6949 45.9989,-13.0102 69.5341,-13.7808 2.2025,-0.2198 4.751,-0.189 6.3238,-2.029 1.6518,-7.6933 0.6292,-16.9434 -5.7896,-22.2447 -9.2813,-7.992 -23.0153,-7.7245 -34.169,-4.5307 -7.1894,2.0607 -11.012,8.7935 -15.59,14.0796 -1.5889,2.4072 -4.6404,1.5416 -7.032,1.5893 -8.4322,-0.7242 -16.9117,-0.614 -25.2962,-1.7623 -0.5039,-9.3607 5.2697,-17.4148 11.0436,-24.1952 10.8707,-12.1763 26.8223,-19.3345 43.0887,-19.9954 z m 2.8161,81.7732 v 0 c -8.2909,0.9758 -17.1788,3.461 -22.5122,10.3672 -7.0164,8.2908 -5.1127,22.8266 4.5936,28.2068 9.8797,6.0099 22.3552,5.3018 32.911,1.5421 6.9374,-2.2654 13.4035,-7.3624 15.9043,-14.3632 1.0074,-8.1334 0.9914,-16.4863 0,-24.6202 -0.5186,-0.4401 -1.5411,-1.3052 -2.0446,-1.7302 -9.4868,-1.8565 -19.3033,-0.2359 -28.8521,0.5975 z"
     style="fill:#84756f;fill-rule:evenodd"
     id="path26" />
  <path
     d="m 602.843,1047.7592 c 10.1317,-19.8688 30.6769,-33.6817 52.7017,-36.4656 11.6568,-1.1644 23.7078,-0.268 34.6881,4.0589 18.4845,6.8112 33.1942,22.9368 38.3698,41.9399 3.5394,10.352 3.0992,21.4268 2.9886,32.2029 -0.1257,2.4072 -0.2047,4.9245 -1.2896,7.1577 -2.7532,1.2116 -5.8364,1.1171 -8.7627,1.2116 -24.1328,-0.079 -48.2807,0.079 -72.4126,-0.031 -6.2774,0.062 -12.727,-0.8811 -18.7993,1.1483 1.856,11.9088 6.7639,24.4623 17.5721,30.9284 10.1625,5.254 22.7004,5.4904 33.1933,0.9441 7.63,-3.0681 12.4283,-10.1157 18.3905,-15.4018 6.9062,3.1938 13.7339,6.6074 20.5144,10.084 2.3278,1.2905 4.9553,2.5017 6.3078,4.9717 -2.2177,6.0563 -7.6135,10.1941 -12.1286,14.5514 -10.2097,9.3602 -23.2512,15.26 -36.8433,17.5721 -9.2505,0.4562 -18.5951,0.6453 -27.8296,-0.1886 -17.462,-4.1691 -34.3737,-13.7808 -44.0015,-29.3551 -15.433,-25.5322 -15.354,-58.7264 -2.6591,-85.3287 z m 38.1655,2.1084 v 0 c -5.9466,6.8429 -10.2726,15.7157 -9.3763,25.0135 20.0106,-0.048 40.0211,-0.048 60.0321,-0.016 1.8876,-0.2992 4.5936,0.2832 5.7262,-1.7307 -0.4245,-11.6884 -5.5844,-24.0538 -16.2035,-29.9215 -12.711,-7.126 -30.6448,-4.6881 -40.1785,6.6548 z"
     style="fill:#84756f;fill-rule:evenodd"
     id="path27" />
  <path
     d="m 986.3818,1014.5971 c 14.7872,-6.0099 31.6205,-3.9176 46.3297,1.3057 14.5358,6.2458 27.3252,17.7612 33.2566,32.6434 7.5355,17.9022 7.9917,38.0706 5.1283,57.0581 -3.0992,16.8805 -10.3511,34.1066 -24.4628,44.6624 -15.1177,11.9087 -35.6794,14.4733 -54.2112,11.3745 -7.8498,-1.0074 -14.1741,-6.1356 -21.5842,-8.4166 -2.0919,10.0835 -0.9748,20.4038 -1.0225,30.614 -0.0469,10.9491 -0.0625,21.8982 -0.1887,32.8629 -11.2951,1.1015 -22.7321,1.1175 -34.0116,0.1418 -4.3577,0.3148 -3.7289,-4.8456 -3.9488,-7.7557 0.0941,-62.4544 0.079,-124.9097 0.0156,-187.3645 0.0478,-2.4379 0.252,-4.8919 1.2429,-7.126 7.4886,-1.951 15.3696,-0.6136 23.0313,-1.007 2.7215,0.3617 6.2137,-0.6608 8.4166,1.353 1.4627,3.8703 2.1548,7.9916 3.6652,11.8459 5.9942,-4.2164 11.4052,-9.502 18.3436,-12.1919 z m 4.656,28.238 v 0 c -6.2297,1.1804 -11.9083,4.3577 -16.707,8.4323 -3.1149,2.2653 -4.8139,5.8997 -4.6253,9.7539 -0.1253,16.2977 0.2524,32.6114 -0.0941,48.91 0.2043,3.2557 -0.4245,6.9998 1.6522,9.8164 12.1763,15.1333 37.3941,16.8644 51.5526,3.5866 8.5419,-7.9287 11.7513,-19.932 12.6164,-31.1959 0.4562,-13.5293 -0.928,-28.3799 -10.1,-39.0935 -8.1955,-9.7848 -22.213,-12.6325 -34.2948,-10.2098 z"
     style="fill:#84756f;fill-rule:evenodd"
     id="path28" />
  <path
     d="m 1164.1965,1011.451 c 20.4199,-1.5265 41.8931,4.4678 56.6339,19.1449 10.3511,9.14 16.2821,22.1034 19.9633,35.176 4.6565,19.3033 3.5082,40.3047 -4.7193,58.4909 -9.3915,20.9389 -30.6613,35.3802 -53.2204,38.1334 -15.008,1.6205 -30.6925,1.0225 -44.7252,-5.0971 -19.6797,-8.1334 -34.9557,-26.1301 -39.6117,-46.9277 -5.3646,-23.1883 -3.0047,-49.1146 10.3671,-69.2665 11.8767,-18.5479 33.7285,-28.7103 55.3123,-29.6539 z m -3.2879,31.2428 v 0 c -14.4257,2.8477 -23.3774,17.1164 -26.0833,30.6608 -2.1392,14.9295 -1.856,31.3217 6.7492,44.3319 10.7917,17.8085 39.329,19.8532 52.8895,4.232 11.0753,-12.3021 12.7114,-30.0004 10.5406,-45.7478 -1.6839,-10.43 -6.4344,-20.8284 -14.9612,-27.4042 -8.0701,-6.466 -19.1771,-8.1022 -29.1348,-6.0727 z"
     style="fill:#84756f;fill-rule:evenodd"
     id="path29" />
  <path
     d="m 196.3376,1014.2827 c 11.2478,-0.9441 22.6536,-0.9918 33.9014,-0.1262 3.9332,3.2879 2.0451,9.3919 2.5486,13.9386 -0.5508,22.024 0.2042,44.0483 -0.2203,66.0883 -0.3305,20.9078 0.928,41.8624 -0.3149,62.738 0.1102,3.4293 -3.9327,3.0047 -6.2453,3.2406 -8.8728,-0.047 -17.7456,0.252 -26.6024,-0.2198 -4.0897,0.2198 -3.728,-4.7038 -3.9166,-7.4726 0.1886,-38.842 -0.0322,-77.6675 0.0156,-116.509 -0.0946,-7.2363 -0.409,-14.5206 0.8339,-21.6779 z"
     style="fill:#84756f;fill-rule:evenodd"
     id="path30" />
</svg>
